<svg id="svg" xmlns="http://www.w3.org/2000/svg" xmlns:xlink="http://www.w3.org/1999/xlink" width="400" height="400"
    style="fill:#ff0" viewBox="0, 0, 400,400">
    <g id="svgg">
        <path id="path0"
            d="M27.928 32.635 C 26.200 37.137,25.538 115.308,26.456 206.348 L 28.125 371.875 75.000 371.875 L 121.875 371.875 121.875 200.000 L 121.875 28.125 76.472 26.287 C 43.448 24.950,30.213 26.681,27.928 32.635 M152.928 32.635 C 151.200 37.137,150.538 115.308,151.456 206.348 L 153.125 371.875 200.000 371.875 L 246.875 371.875 246.875 200.000 L 246.875 28.125 201.472 26.287 C 168.448 24.950,155.213 26.681,152.928 32.635 M277.928 32.635 C 276.200 37.137,275.538 115.308,276.456 206.348 L 278.125 371.875 325.000 371.875 L 371.875 371.875 371.875 200.000 L 371.875 28.125 326.472 26.287 C 293.448 24.950,280.213 26.681,277.928 32.635 "
            stroke="none"  fill-rule="evenodd"></path>
    </g>
</svg>
